<?xml version="1.0" encoding="utf-8"?>
<!-- Generator: Adobe Illustrator 24.2.0, SVG Export Plug-In . SVG Version: 6.00 Build 0)  -->
<svg version="1.1" id="Layer_1" xmlns="http://www.w3.org/2000/svg" xmlns:xlink="http://www.w3.org/1999/xlink" x="0px" y="0px"
	 viewBox="0 0 839 547.8" style="enable-background:new 0 0 839 547.8;" xml:space="preserve">
<style type="text/css">
	.st0{fill-rule:evenodd;clip-rule:evenodd;fill:#0063CE;}
	.st1{fill-rule:evenodd;clip-rule:evenodd;fill:#FCC903;}
	.st2{fill-rule:evenodd;clip-rule:evenodd;fill:#FBEEE5;}
	.st3{fill-rule:evenodd;clip-rule:evenodd;fill:#D8AC03;}
	.st4{fill-rule:evenodd;clip-rule:evenodd;fill:#36436E;}
	.st5{fill-rule:evenodd;clip-rule:evenodd;fill:#EFEFEF;}
	.st6{fill-rule:evenodd;clip-rule:evenodd;fill:#D7D7D7;}
	.st7{fill-rule:evenodd;clip-rule:evenodd;fill:#019E9F;}
	.st8{fill-rule:evenodd;clip-rule:evenodd;fill:#018686;}
	.st9{fill-rule:evenodd;clip-rule:evenodd;fill:#FFFFFF;}
	.st10{fill:#E3E3E3;}
	.st11{fill-rule:evenodd;clip-rule:evenodd;fill:#FC4873;}
	.st12{fill-rule:evenodd;clip-rule:evenodd;fill:#394774;}
	.st13{fill-rule:evenodd;clip-rule:evenodd;fill:#E3E3E3;}
	.st14{fill-rule:evenodd;clip-rule:evenodd;fill:#B3DFF7;}
	.st15{fill-rule:evenodd;clip-rule:evenodd;fill:#02B3B4;}
	.st16{fill-rule:evenodd;clip-rule:evenodd;fill:#02AC9E;}
	.st17{fill-rule:evenodd;clip-rule:evenodd;fill:#02BEAE;}
	.st18{fill-rule:evenodd;clip-rule:evenodd;fill:#FC3962;}
	.st19{fill:#FFFFFF;}
	.st20{fill-rule:evenodd;clip-rule:evenodd;}
	.st21{fill-rule:evenodd;clip-rule:evenodd;fill:#333333;}
	.st22{fill-rule:evenodd;clip-rule:evenodd;fill:#F02A47;}
	.st23{fill-rule:evenodd;clip-rule:evenodd;fill:#D69062;}
	.st24{fill-rule:evenodd;clip-rule:evenodd;fill:#8EA0A4;}
</style>
<rect x="35.1" y="39" class="st0" width="762.8" height="472"/>
<g>
	
		<rect x="46.4" y="276.5" transform="matrix(0.3578 -0.9338 0.9338 0.3578 -216.7727 267.2494)" class="st1" width="79" height="29.5"/>
	<polygon class="st2" points="105.6,239.8 109.8,249.7 113.9,259.6 100.1,254.3 86.2,249 95.9,244.4 	"/>
	<polygon class="st1" points="105.6,239.8 109.6,249.4 96.2,244.3 	"/>
	
		<rect x="40.1" y="287.8" transform="matrix(0.3578 -0.9338 0.9338 0.3578 -218.5739 259.7762)" class="st3" width="79" height="2"/>
	
		<rect x="52.5" y="292.5" transform="matrix(0.3578 -0.9338 0.9338 0.3578 -215.0436 274.4237)" class="st3" width="79" height="2"/>
</g>
<g>
	
		<rect x="748.8" y="458.3" transform="matrix(0.9729 -0.2313 0.2313 0.9729 -93.1145 189.4385)" class="st1" width="25.1" height="67.1"/>
	<polygon class="st2" points="750.5,446.3 758.2,451.3 765.8,456.3 753.6,459.2 741.4,462.1 745.9,454.2 	"/>
	<polygon class="st1" points="750.5,446.3 757.9,451.1 746.1,453.9 	"/>
	
		<rect x="754.9" y="459.6" transform="matrix(0.9729 -0.2313 0.2313 0.9729 -93.5747 188.1783)" class="st3" width="1.7" height="67.1"/>
	
		<rect x="765.9" y="457" transform="matrix(0.9729 -0.2313 0.2313 0.9729 -92.6726 190.6485)" class="st3" width="1.7" height="67.1"/>
</g>
<g>
	<path class="st4" d="M0.5,86.3l35.9-9.4l21.8,83.5c2.6,9.9-3.4,20.1-13.3,22.7l0,0c-9.9,2.6-20.1-3.4-22.7-13.3L0.5,86.3z"/>
	<path class="st5" d="M4.5,85.3l28-7.3l21.4,81.8c2,7.7-2.6,15.6-10.3,17.6l0,0c-7.7,2-15.6-2.6-17.6-10.3L4.5,85.3z"/>
	<g>
		<path class="st6" d="M7.6,84.4L31,173.8c-0.5-0.5-1-1-1.5-1.5L6.6,84.7L7.6,84.4z"/>
		<path class="st6" d="M13,83l24.7,94.4c-0.4-0.1-0.8-0.2-1.2-0.3L12,83.3L13,83z"/>
		<path class="st6" d="M18.4,81.6l25,95.8c-0.3,0.1-0.7,0.2-1,0.2l-25-95.7L18.4,81.6z"/>
		<path class="st6" d="M23.8,80.2l24.7,94.4c-0.3,0.3-0.6,0.5-0.9,0.7L22.8,80.5L23.8,80.2z"/>
		<path class="st6" d="M29.2,78.8l23.4,89.5c-0.2,0.6-0.4,1.1-0.7,1.6L28.2,79.1L29.2,78.8z"/>
	</g>
</g>
<g>
	
		<rect x="763.7" y="214" transform="matrix(0.3767 -0.9263 0.9263 0.3767 285.657 877.0921)" class="st7" width="61.8" height="24.6"/>
	<polygon class="st2" points="812.6,181.9 815.1,192.1 817.6,202.3 806.2,197.6 794.8,193 803.7,187.4 	"/>
	<polygon class="st7" points="812.6,181.9 815,191.8 804,187.3 	"/>
	
		<rect x="758.4" y="223.3" transform="matrix(0.3767 -0.9263 0.9263 0.3767 284.3677 870.9255)" class="st8" width="61.8" height="1.7"/>
	
		<rect x="768.7" y="227.5" transform="matrix(0.3767 -0.9263 0.9263 0.3767 286.8946 883.0118)" class="st8" width="61.8" height="1.7"/>
</g>
<g>
	
		<rect x="198.1" y="342.5" transform="matrix(0.9197 -0.3926 0.3926 0.9197 -129.4544 111.9737)" class="st7" width="21.9" height="59.9"/>
	<polygon class="st2" points="192.6,334 200,337.3 207.3,340.6 197.3,344.9 187.2,349.2 189.9,341.6 	"/>
	<polygon class="st7" points="192.6,334 199.8,337.2 190,341.4 	"/>
	
		<rect x="203.7" y="344.5" transform="matrix(0.9197 -0.3926 0.3926 0.9197 -130.5982 110.32)" class="st8" width="1.5" height="59.9"/>
	
		<rect x="212.7" y="340.7" transform="matrix(0.9197 -0.3926 0.3926 0.9197 -128.3565 113.5609)" class="st8" width="1.5" height="59.9"/>
</g>
<g>
	<g>
		<path class="st9" d="M285.1,423.3l104.1-20.8c19.1-3.8,36.8,7.2,36.8,19V443H285.1V423.3z"/>
		<g>
			<path class="st10" d="M285.1,428.3l100.7-18.1l0.1,0c9.2-0.9,18,0.4,25.7,2.9c5.4,1.8,10.3,4.2,14.3,6.8c0.1,0.5,0.1,1.1,0.1,1.7
				v1.3c-4-2.9-9.2-5.6-15.2-7.5c-7.3-2.4-15.8-3.6-24.6-2.8l-101.1,18.1V428.3z"/>
			<path class="st10" d="M285.1,436.3l101.8-18.3l0.1,0c9.2-0.9,18,0.4,25.7,2.9c5,1.6,9.5,3.8,13.3,6.2v2.9
				c-3.9-2.6-8.7-5-14.1-6.8c-7.3-2.4-15.8-3.6-24.6-2.8l-102.2,18.3V436.3z"/>
			<path class="st10" d="M292.8,443l95.2-17.1l0.1,0c9.2-0.9,18,0.4,25.7,2.9c4.6,1.5,8.7,3.4,12.3,5.5v2.8
				c-3.7-2.3-8.1-4.5-13.1-6.1c-7.3-2.4-15.8-3.6-24.6-2.8L306.1,443H292.8z"/>
			<path class="st10" d="M337.4,443l51.6-9.2l0.1,0c9.2-0.9,18,0.4,25.7,2.9c4.1,1.3,7.9,3,11.2,4.9v1.5h-2.3
				c-2.9-1.6-6.2-3-9.8-4.2c-7.3-2.4-15.8-3.6-24.6-2.8l-38.6,6.9H337.4z"/>
		</g>
	</g>
	<g>
		<path class="st9" d="M566.8,423.3l-104.1-20.8c-19.1-3.8-36.8,7.2-36.8,19V443h140.9V423.3z"/>
		<g>
			<path class="st10" d="M566.8,428.3l-100.7-18.1l-0.1,0c-9.2-0.9-18,0.4-25.7,2.9c-5.4,1.8-10.3,4.2-14.3,6.8
				c-0.1,0.5-0.1,1.1-0.1,1.7v1.3c4-2.9,9.2-5.6,15.2-7.5c7.3-2.4,15.8-3.6,24.6-2.8l101.1,18.1V428.3z"/>
			<path class="st10" d="M566.8,436.3l-101.8-18.3l-0.1,0c-9.2-0.9-18,0.4-25.7,2.9c-5,1.6-9.5,3.8-13.3,6.2v2.9
				c3.9-2.6,8.7-5,14.1-6.8c7.3-2.4,15.8-3.6,24.6-2.8l102.2,18.3V436.3z"/>
			<path class="st10" d="M559.2,443L464,425.9l-0.1,0c-9.2-0.9-18,0.4-25.7,2.9c-4.6,1.5-8.7,3.4-12.3,5.5v2.8
				c3.7-2.3,8.1-4.5,13.1-6.1c7.3-2.4,15.8-3.6,24.6-2.8l82.2,14.7H559.2z"/>
			<path class="st10" d="M514.5,443l-51.6-9.2l-0.1,0c-9.2-0.9-18,0.4-25.7,2.9c-4.1,1.3-7.9,3-11.2,4.9v1.5h2.3
				c2.9-1.6,6.2-3,9.8-4.2c7.3-2.4,15.8-3.6,24.6-2.8l38.6,6.9H514.5z"/>
		</g>
	</g>
	<rect x="280" y="442" class="st11" width="293.3" height="14.5"/>
</g>
<g>
	<path class="st12" d="M610.5,122.1l60.4,26.4l-40.8,93.1l-65.5-28.7c-5.2-2.3-7.6-8.4-5.3-13.6l30.2-69.1
		C593.1,122.3,602.5,118.6,610.5,122.1z"/>
	<rect x="571.4" y="147.7" transform="matrix(0.401 -0.9161 0.9161 0.401 206.4442 677)" class="st1" width="99" height="65.8"/>
	
		<rect x="620.5" y="137.7" transform="matrix(0.401 -0.9161 0.9161 0.401 234.0712 672.3566)" class="st9" width="21.4" height="38.9"/>
	<path class="st13" d="M570.9,197.8l66.2,29l-5.7,13.1l-66.2-29c-3.6-1.6-5.2-5.8-3.7-9.4l0,0C563.1,197.8,567.3,196.2,570.9,197.8z
		"/>
</g>
<g>
	
		<rect x="209.9" y="200.5" transform="matrix(0.964 -0.266 0.266 0.964 -45.9163 67.3055)" class="st14" width="31.2" height="5.2"/>
	
		<rect x="221.4" y="202.2" transform="matrix(0.964 -0.266 0.266 0.964 -53.3995 70.5038)" class="st14" width="24.2" height="60.3"/>
	<path class="st14" d="M252.6,301.5c18.6-5.1,29.5-24.5,24.4-43c-5.1-18.6-24.5-29.5-43-24.4c-18.6,5.1-29.5,24.5-24.4,43
		C214.7,295.6,234,306.6,252.6,301.5z"/>
	<path class="st15" d="M273.5,259.8c0,0.1,0.1,0.3,0.1,0.4c4.6,16.6-5.2,33.8-21.8,38.4c-16.6,4.6-33.8-5.2-38.4-21.8
		c0-0.1-0.1-0.3-0.1-0.4L273.5,259.8z"/>
</g>
<g>
	<rect x="637.4" y="492.4" class="st16" width="25.5" height="19.7"/>
	
		<rect x="625.5" y="462.1" transform="matrix(0.4916 -0.8708 0.8708 0.4916 -96.5312 791.8369)" class="st17" width="8.8" height="32.9"/>
	<path class="st17" d="M659.4,428.7c10.2,7.2,16.9,19.1,16.9,32.6c0,22-17.8,39.8-39.8,39.8c-6,0-11.6-1.3-16.7-3.7l8.7-15.1
		c2.5,0.9,5.2,1.5,8,1.5c12.4,0,22.5-10.1,22.5-22.5c0-7-3.2-13.3-8.3-17.4L659.4,428.7z"/>
	<path class="st16" d="M659.4,428.7c3.8,2.7,7.1,6,9.8,9.8L658,454.8c-1.3-4.3-3.9-8.1-7.3-10.9L659.4,428.7z"/>
	<rect x="624.8" y="511.3" class="st17" width="50.7" height="9"/>
	
		<rect x="630.3" y="420.6" transform="matrix(0.567 -0.8237 0.8237 0.567 -69.5423 726.5438)" class="st17" width="52" height="17.6"/>
	
		<rect x="636.9" y="440.2" transform="matrix(0.4917 -0.8708 0.8708 0.4917 -69.6273 788.5391)" class="st17" width="7.4" height="27.4"/>
</g>
<rect x="353.9" y="482.7" class="st18" width="6.1" height="16.5"/>
<polygon class="st18" points="414.1,485.6 409.6,479.7 423.2,469.6 427.8,475.4 "/>
<polygon class="st18" points="248,135.6 243.6,129.6 257.5,119.8 261.9,125.7 "/>
<polygon class="st18" points="571.4,348.6 578.7,347.3 581.3,364.1 574,365.4 "/>
<polygon class="st1" points="510.7,132.9 515.7,138.3 503,149.6 498,144.2 "/>
<polygon class="st1" points="135.3,192.3 131.6,185.9 146.6,177.8 150.3,184.2 "/>
<polygon class="st1" points="473,491.9 474.8,484.8 491.2,489.5 489.3,496.6 "/>
<polygon class="st17" points="205.4,155.3 199.4,159.6 189.9,145.5 195.9,141.2 "/>
<polygon class="st17" points="437,154.7 435.3,147.5 451.9,144 453.6,151.2 "/>
<path class="st9" d="M508.5,509.3c0,1.8,1.4,3.2,3.2,3.2c1.8,0,3.2-1.4,3.2-3.2c0-1.8-1.4-3.2-3.2-3.2
	C509.9,506.1,508.5,507.5,508.5,509.3z"/>
<path class="st9" d="M229.1,152.1c1.6-0.7,2.4-2.5,1.8-4.2c-0.7-1.6-2.5-2.4-4.2-1.8c-1.6,0.7-2.4,2.5-1.8,4.2
	C225.6,152,227.5,152.7,229.1,152.1z"/>
<polygon class="st18" points="310,347.6 305.6,341.6 319.5,331.8 323.9,337.7 "/>
<polygon class="st17" points="267.4,367.3 261.4,371.6 251.9,357.5 257.9,353.2 "/>
<path class="st9" d="M291.1,364.1c1.6-0.7,2.4-2.5,1.8-4.2c-0.7-1.6-2.5-2.4-4.2-1.8c-1.6,0.7-2.4,2.5-1.8,4.2
	C287.6,364,289.5,364.7,291.1,364.1z"/>
<path class="st9" d="M326,472c-1.8,0-3.2,1.4-3.2,3.2c0,1.8,1.4,3.2,3.2,3.2c1.8,0,3.2-1.4,3.2-3.2C329.2,473.5,327.8,472,326,472z"
	/>
<path class="st9" d="M118,360c-1.8,0-3.2,1.4-3.2,3.2c0,1.8,1.4,3.2,3.2,3.2c1.8,0,3.2-1.4,3.2-3.2C121.2,361.5,119.8,360,118,360z"
	/>
<path class="st9" d="M427.3,519.2c-1.8,0-3.2,1.4-3.2,3.2c0,1.8,1.4,3.2,3.2,3.2c1.8,0,3.2-1.4,3.2-3.2
	C430.5,520.7,429.1,519.2,427.3,519.2z"/>
<path class="st9" d="M115.2,182.5c1.6-0.7,2.4-2.5,1.8-4.2c-0.7-1.6-2.5-2.4-4.2-1.8c-1.6,0.7-2.4,2.5-1.8,4.2
	C111.7,182.4,113.6,183.2,115.2,182.5z"/>
<polygon class="st17" points="472.8,383.4 472,376.1 488.9,374.6 489.7,382 "/>
<path class="st9" d="M545.6,260c0,1.8,1.4,3.2,3.2,3.2s3.2-1.4,3.2-3.2c0-1.8-1.4-3.2-3.2-3.2S545.6,258.3,545.6,260z"/>
<g>
	<path class="st19" d="M315.6,166.2c-0.1-0.6,0.3-1.3,0.9-1.4c0.6-0.2,1.3,0.2,1.4,0.9c2.6,11.3,5.1,23.4,7.6,35.1
		c2.2,10.6,4.3,20.8,6.5,30.2c0.1,0.6-0.3,1.3-0.9,1.4c-0.6,0.2-1.3-0.2-1.4-0.9c-2.1-9-4.2-19.4-6.5-30.2
		C320.8,189.8,318.3,177.9,315.6,166.2z"/>
	<path class="st19" d="M335.2,153.5c-0.2-0.6,0.2-1.3,0.9-1.4c0.6-0.2,1.3,0.2,1.5,0.8l17.6,67.1c0.2,0.6-0.2,1.3-0.9,1.4
		c-0.6,0.2-1.3-0.2-1.5-0.8L335.2,153.5z"/>
	<path class="st19" d="M299.1,198.5c-0.6,0.3-1.3,0.2-1.6-0.4c-0.3-0.6-0.1-1.3,0.4-1.6c13-7.8,22-13,30.9-17.6
		c9-4.6,17.9-8.4,30.8-13.6c0.6-0.2,1.3,0,1.6,0.6c0.2,0.6-0.1,1.3-0.7,1.5c-12.8,5.2-21.7,9-30.6,13.5
		C321,185.5,312,190.7,299.1,198.5z"/>
	<path class="st19" d="M311.2,217.4c-0.6,0.3-1.3,0-1.6-0.6c-0.3-0.6,0-1.3,0.6-1.6l56.2-24.6c0.6-0.3,1.3,0,1.6,0.6
		c0.3,0.6,0,1.3-0.6,1.6L311.2,217.4z"/>
	<path class="st19" d="M362.3,214.8c1.7,0.3,3.6-0.3,5.2-1.5c0.9-0.7,1.7-1.5,2.2-2.5c0.5-1,0.7-2,0.4-3.2c-0.3-1.8-1.6-3.7-4.4-5.6
		c-1.4-1-2.6-0.9-3.7-0.1c-1.1,0.7-1.9,2.1-2.5,3.6l0,0c-0.6,1.6-0.9,3.4-0.7,5C359,212.7,360.1,214.5,362.3,214.8L362.3,214.8z
		 M368.9,215.2c-2.1,1.5-4.7,2.3-7,1.9c-3.5-0.6-5.2-3.2-5.5-6.3c-0.2-2,0.1-4.1,0.9-6l0,0l0,0c0.8-2,1.9-3.7,3.4-4.7
		c1.9-1.3,4.1-1.6,6.5,0.1c3.3,2.3,4.8,4.8,5.3,7c0.3,1.7,0.1,3.2-0.6,4.6C371.2,213.2,370.1,214.3,368.9,215.2z"/>
	<path class="st19" d="M326.1,187.7c-0.5-0.4-0.6-1.1-0.1-1.7c0.4-0.5,1.2-0.6,1.7-0.2c1.7,1.4,4.6,2.8,7.4,4.2
		c3.5,1.8,6.9,3.4,7.9,5.1c0.3,0.5,0.2,1.3-0.4,1.6c-0.6,0.4-1.3,0.2-1.6-0.3c-0.7-1.1-3.8-2.6-7-4.2
		C331.1,190.7,328.1,189.2,326.1,187.7z"/>
	<path class="st19" d="M336,182.9c0.3-0.6,1-0.9,1.6-0.6c0.6,0.2,0.9,0.9,0.6,1.5c0,0.1-2.4,6.1-4,10.4c-0.9,2.3-1.5,4.1-1.5,4.1
		c-0.1,0.6-0.7,1.1-1.3,1.1c-0.7-0.1-1.1-0.6-1.1-1.3c0-0.2,0.8-2.2,1.7-4.7C333.6,189.1,335.9,183,336,182.9z"/>
	<path class="st19" d="M298.3,178.4c-0.1,1.7,0.7,3.5,2,4.8c0.8,0.8,1.7,1.4,2.8,1.8c1,0.3,2.1,0.3,3.2,0c1.7-0.6,3.6-2.1,5.3-5.1
		c0.8-1.5,0.6-2.7-0.2-3.6c-0.9-0.9-2.3-1.6-3.9-2l-0.1,0c-1.6-0.4-3.5-0.4-5,0C300.2,174.9,298.4,176.2,298.3,178.4L298.3,178.4z
		 M298.5,184.9c-1.7-1.8-2.7-4.3-2.6-6.5c0.2-3.5,2.7-5.5,5.9-6.3c1.9-0.5,4.1-0.4,6.1,0l0.1,0c2.1,0.5,3.9,1.4,5.1,2.7
		c1.5,1.6,2,3.8,0.5,6.3c-2,3.5-4.4,5.4-6.6,6.2c-1.7,0.6-3.3,0.5-4.7,0C300.8,186.8,299.5,186,298.5,184.9z"/>
	<path class="st19" d="M341.3,155.1c-0.5-0.4-0.7-1.1-0.3-1.6c0.4-0.5,1.1-0.7,1.7-0.3c1.7,1.1,4.5,2.2,7.2,3.3
		c3.5,1.4,6.7,2.7,7.7,4.1c0.4,0.5,0.2,1.3-0.3,1.6c-0.5,0.4-1.3,0.3-1.7-0.2c-0.6-0.8-3.6-2-6.7-3.3
		C346.1,157.5,343.1,156.3,341.3,155.1z"/>
	<path class="st19" d="M351.1,150.3c0.3-0.6,1-0.8,1.6-0.5c0.6,0.3,0.8,1,0.5,1.6c-0.1,0.1-2.6,5.2-4.3,9c-0.9,2-1.7,3.5-1.7,3.5
		c-0.1,0.6-0.7,1.1-1.4,1c-0.7-0.1-1.1-0.7-1-1.3c0-0.2,0.8-2,1.9-4.1C348.5,155.7,351,150.4,351.1,150.3z"/>
	<path class="st19" d="M309.8,223.8c-0.5-0.4-0.7-1.1-0.3-1.6c0.4-0.5,1.1-0.7,1.7-0.3c1.7,1.1,4.5,2.2,7.2,3.3
		c3.5,1.4,6.7,2.7,7.7,4.1c0.4,0.5,0.3,1.3-0.3,1.6c-0.5,0.4-1.3,0.3-1.7-0.2c-0.6-0.8-3.6-2-6.7-3.3
		C314.6,226.1,311.7,225,309.8,223.8z"/>
	<path class="st19" d="M319.6,219c0.3-0.6,1-0.8,1.6-0.5c0.6,0.3,0.8,1,0.5,1.6c-0.1,0.1-2.6,5.2-4.3,9c-0.9,2-1.7,3.5-1.7,3.5
		c-0.1,0.6-0.7,1.1-1.4,1c-0.7-0.1-1.1-0.7-1-1.3c0-0.2,0.8-2,1.9-4.1C317,224.3,319.6,219.1,319.6,219z"/>
</g>
<g>
	<path class="st20" d="M116.6,430.9l-4.8-3.5c-9.8-5.1-38.2-20.1-50.1-23.3c-12.4-3.4-34.6-19.8-40.3-8.7
		c-1.7,3.2-13.9,30.3-12,31.2c12.2,6.5,15.3,7.2,27.2,12.4c18.4,8,35.9,15,54.3,22.3c6.2,2.5,11,7.2,15.4,1.3
		c0.4-0.6,12.5-26.3,12.4-26.6C119.7,434.2,117.9,432,116.6,430.9z"/>
	<path class="st21" d="M114.8,437.1l-3.6-4.7c-4.3-4.4-62.7-22.6-78-34.7c0,0-5.1-2.2-5.4-2.3c-3.3,4.8-14.5,30.3-10.7,32
		c11.1,4.9,25.9,7.4,41.4,14.3c18.2,8.1,13.9,6,30.2,16.6c8.5,5.5,11,2.3,13.7,2.8C112.7,444.3,106.3,457.4,114.8,437.1z"/>
	<path class="st22" d="M135.9,454.7l1.4,1l1-0.1c2.3-0.1,7.4,3.5,8.9,4.8c-1.5,2.9-1.5,1.7-2.8,3.1c-0.5,0.5-0.4,0.1-1.2,0.9
		l-0.4,0.4c-1.2,1.3-2.4,1.6-2.8,1.9c-1.7-1-9-2.9-7.7-5.8C133.6,457.9,134.4,457.8,135.9,454.7z"/>
	<path class="st11" d="M114.3,428.4c-0.2,0-9.3,21-11.3,25c-1.7,3.4-4.1,6.9-6,10.7c13.1,6.8,15.6-5,24.6-2.2
		c3.5,1.1,9.4,3,11.7,3.7c2.1,0.6,3.4-3.9,5.7-10.1c0.2-0.6-0.3-1-0.8-1.4c-10.3-9.2-12.1-3.6-15.7-18.9c-0.9-3.7-8.9-6.8-9.5-6.7
		C113.9,428.7,113.4,428.3,114.3,428.4z"/>
	<path class="st11" d="M29.9,390.7c-0.1,5.5-12.5,33-15.6,39.1c-1.5-0.8-3.8-1.5-5.9-2.6c1.9-3.1,3-12.2,6.3-18.1
		c3.3-5.8,5-14.7,10.1-19.6C25.5,389.6,26.8,387.7,29.9,390.7z"/>
</g>
<path class="st1" d="M256,75.9l-77.4,49.7l37.8-113.3L256,75.9L256,75.9z M235.2,71.1l-14.9-23.9L206,89.8L235.2,71.1z"/>
<g>
	
		<rect x="598.1" y="1.6" transform="matrix(0.3773 -0.9261 0.9261 0.3773 345.4385 595.732)" class="st23" width="35.3" height="78.7"/>
	
		<rect x="624.8" y="41.4" transform="matrix(0.3774 -0.9261 0.9261 0.3774 351.9892 627.2659)" class="st24" width="35.3" height="21"/>
	
		<rect x="613.7" y="44.5" transform="matrix(0.3773 -0.9261 0.9261 0.3773 349.286 614.1395)" class="st9" width="35.3" height="5.7"/>
</g>
<rect x="649.7" y="327.4" transform="matrix(0.866 -0.5001 0.5001 0.866 -79.689 370.9229)" class="st18" width="5" height="13.5"/>
<polygon class="st1" points="436.5,71 440.4,75.6 429.4,84.3 425.6,79.7 "/>
<polygon class="st17" points="497.4,94 499.5,99.6 486.4,104.3 484.2,98.7 "/>
<path class="st9" d="M640.2,292.3c1.4,0,2.6-1.2,2.6-2.6c0-1.4-1.2-2.6-2.6-2.6c-1.4,0-2.6,1.2-2.6,2.6
	C637.5,291.2,638.7,292.3,640.2,292.3z"/>
<path class="st9" d="M427,286.3c1.4,0,2.6-1.2,2.6-2.6c0-1.4-1.2-2.6-2.6-2.6c-1.4,0-2.6,1.2-2.6,2.6
	C424.4,285.1,425.6,286.3,427,286.3z"/>
<path class="st9" d="M313,397.3c1.4,0,2.6-1.2,2.6-2.6c0-1.4-1.2-2.6-2.6-2.6c-1.4,0-2.6,1.2-2.6,2.6
	C310.4,396.1,311.6,397.3,313,397.3z"/>
<path class="st9" d="M699,386.3c1.4,0,2.6-1.2,2.6-2.6c0-1.4-1.2-2.6-2.6-2.6c-1.4,0-2.6,1.2-2.6,2.6
	C696.4,385.1,697.6,386.3,699,386.3z"/>
<path class="st9" d="M617,406.3c1.4,0,2.6-1.2,2.6-2.6c0-1.4-1.2-2.6-2.6-2.6c-1.4,0-2.6,1.2-2.6,2.6
	C614.4,405.1,615.6,406.3,617,406.3z"/>
<rect x="785.7" y="446.4" transform="matrix(0.866 -0.5001 0.5001 0.866 -120.9708 454.878)" class="st18" width="5" height="13.5"/>
<path class="st9" d="M776.2,411.3c1.4,0,2.6-1.2,2.6-2.6c0-1.4-1.2-2.6-2.6-2.6c-1.4,0-2.6,1.2-2.6,2.6
	C773.5,410.2,774.7,411.3,776.2,411.3z"/>
<path class="st9" d="M508.8,64.2c1.4,0,2.6-1.2,2.6-2.6c0-1.4-1.2-2.6-2.6-2.6s-2.6,1.2-2.6,2.6C506.1,63.1,507.3,64.2,508.8,64.2z"
	/>
<polygon class="st1" points="166.7,317.9 171.7,323.3 159,334.6 154,329.2 "/>
<polygon class="st17" points="153.4,279 155.5,284.6 142.4,289.3 140.2,283.7 "/>
<path class="st9" d="M164.8,249.2c1.4,0,2.6-1.2,2.6-2.6c0-1.4-1.2-2.6-2.6-2.6s-2.6,1.2-2.6,2.6
	C162.1,248.1,163.3,249.2,164.8,249.2z"/>
<polygon class="st1" points="106.7,127.9 111.7,133.3 99,144.6 94,139.2 "/>
<polygon class="st17" points="93.4,89 95.5,94.6 82.4,99.3 80.2,93.7 "/>
<path class="st9" d="M104.8,59.2c1.4,0,2.6-1.2,2.6-2.6c0-1.4-1.2-2.6-2.6-2.6s-2.6,1.2-2.6,2.6C102.1,58.1,103.3,59.2,104.8,59.2z"
	/>
<rect x="753.1" y="298.1" transform="matrix(0.866 -0.5001 0.5001 0.866 -51.1848 418.6884)" class="st18" width="5" height="13.5"/>
<polygon class="st1" points="726.1,321.4 730,326 719.1,334.7 715.2,330 "/>
<polygon class="st17" points="757,378.3 759.2,384 746,388.7 743.8,383 "/>
<polygon class="st17" points="365.8,283.4 368,289 354.9,293.7 352.7,288.1 "/>
<path class="st9" d="M743.5,263c1.4,0,2.6-1.2,2.6-2.6c0-1.4-1.2-2.6-2.6-2.6c-1.4,0-2.6,1.2-2.6,2.6
	C740.9,261.9,742.1,263,743.5,263z"/>
<path class="st9" d="M768.4,348.6c1.4,0,2.6-1.2,2.6-2.6c0-1.4-1.2-2.6-2.6-2.6s-2.6,1.2-2.6,2.6
	C765.8,347.4,766.9,348.6,768.4,348.6z"/>
<path class="st9" d="M527,365.3c1.4,0,2.6-1.2,2.6-2.6c0-1.4-1.2-2.6-2.6-2.6s-2.6,1.2-2.6,2.6C524.4,364.1,525.6,365.3,527,365.3z"
	/>
<path class="st9" d="M186.3,406.1c1.4-0.5,2.1-1.9,1.7-3.3c-0.5-1.4-1.9-2.1-3.3-1.7c-1.4,0.5-2.1,1.9-1.7,3.3
	C183.4,405.8,184.9,406.6,186.3,406.1z"/>
<path class="st9" d="M146.6,493c1.4-0.5,2.1-1.9,1.7-3.3c-0.5-1.4-1.9-2.1-3.3-1.7s-2.1,1.9-1.7,3.3
	C143.8,492.7,145.3,493.5,146.6,493z"/>
<polygon class="st18" points="407.6,333.4 402.9,339.1 390.1,327.8 394.9,322.2 "/>
<polygon class="st1" points="498.5,289.6 492.6,294 482.8,280 488.8,275.7 "/>
<polygon class="st17" points="486.3,336.4 492.8,339.8 484.4,354.6 477.9,351.2 "/>
<polygon class="st17" points="696.8,492.4 696,485.1 712.9,483.6 713.7,491 "/>
<polygon class="st17" points="710.3,445.4 716.8,448.8 708.4,463.6 701.9,460.2 "/>
<path class="st9" d="M438.6,351.6c1.8,0,3.2-1.4,3.2-3.2c0-1.8-1.4-3.2-3.2-3.2c-1.8,0-3.2,1.4-3.2,3.2
	C435.4,350.2,436.8,351.6,438.6,351.6z"/>
<path class="st9" d="M495.2,233.9c1.8,0,3.2-1.4,3.2-3.2c0-1.8-1.4-3.2-3.2-3.2c-1.8,0-3.2,1.4-3.2,3.2
	C492,232.4,493.5,233.9,495.2,233.9z"/>
<path class="st9" d="M347,330c1.8,0,3.2-1.4,3.2-3.2c0-1.8-1.4-3.2-3.2-3.2c-1.8,0-3.2,1.4-3.2,3.2C343.8,328.6,345.2,330,347,330z"
	/>
<polygon class="st1" points="367.2,366.3 363.9,359.7 379.3,352.5 382.6,359.1 "/>
<polygon class="st18" points="85.6,474.4 80.9,480.1 68.1,468.8 72.9,463.2 "/>
<polygon class="st1" points="53.2,499.3 49.9,492.7 65.3,485.5 68.6,492.1 "/>
<polygon class="st17" points="760.8,123.4 760,116.1 776.9,114.6 777.7,122 "/>
<polygon class="st18" points="695.6,73.4 690.9,79.1 678.1,67.8 682.9,62.2 "/>
<polygon class="st17" points="774.3,76.4 780.8,79.8 772.4,94.6 765.9,91.2 "/>
<path class="st9" d="M726.6,91.6c1.8,0,3.2-1.4,3.2-3.2c0-1.8-1.4-3.2-3.2-3.2c-1.8,0-3.2,1.4-3.2,3.2
	C723.4,90.2,724.8,91.6,726.6,91.6z"/>
<polygon class="st1" points="655.2,106.3 651.9,99.7 667.3,92.5 670.6,99.1 "/>
<polygon class="st18" points="248.3,448.1 245.6,454.9 229.9,448.2 232.7,441.3 "/>
<polygon class="st1" points="226.2,497.9 221,492.6 233.4,481 238.6,486.3 "/>
<polygon class="st18" points="326.8,269.5 332.4,274.2 321.1,287 315.5,282.2 "/>
<polygon class="st1" points="352,68.5 356.3,74.5 342.4,84.2 338,78.3 "/>
<polygon class="st17" points="372.7,129.8 376.2,123.3 391,131.7 387.5,138.2 "/>
<path class="st9" d="M417.4,186c0-1.8-1.4-3.2-3.2-3.2c-1.8,0-3.2,1.4-3.2,3.2c0,1.8,1.4,3.2,3.2,3.2
	C416,189.2,417.4,187.8,417.4,186z"/>
<path class="st9" d="M299.2,104.8c0-1.8-1.4-3.2-3.2-3.2c-1.8,0-3.2,1.4-3.2,3.2c0,1.8,1.4,3.2,3.2,3.2
	C297.8,108.1,299.2,106.6,299.2,104.8z"/>
<path class="st9" d="M531.2,188.2c0-1.8-1.4-3.2-3.2-3.2c-1.8,0-3.2,1.4-3.2,3.2c0,1.8,1.4,3.2,3.2,3.2
	C529.8,191.4,531.2,190,531.2,188.2z"/>
<path class="st9" d="M572.2,92.2c0-1.8-1.4-3.2-3.2-3.2c-1.8,0-3.2,1.4-3.2,3.2c0,1.8,1.4,3.2,3.2,3.2
	C570.8,95.4,572.2,94,572.2,92.2z"/>
<path class="st9" d="M149.2,84.2c0-1.8-1.4-3.2-3.2-3.2c-1.8,0-3.2,1.4-3.2,3.2c0,1.8,1.4,3.2,3.2,3.2
	C147.8,87.4,149.2,86,149.2,84.2z"/>
<polygon class="st1" points="675.9,233.7 668.6,232.9 671,216 678.3,216.9 "/>
<path class="st9" d="M685.4,170.4c1.3,1.2,3.3,1.1,4.5-0.2c1.2-1.3,1.1-3.3-0.2-4.5c-1.3-1.2-3.3-1.1-4.5,0.2
	C684,167.2,684.1,169.2,685.4,170.4z"/>
<polygon class="st1" points="431.6,232.9 425,236.2 417.8,220.8 424.4,217.5 "/>
<path class="st9" d="M749,156.6c0-1.8-1.4-3.2-3.2-3.2c-1.8,0-3.2,1.4-3.2,3.2c0,1.8,1.4,3.2,3.2,3.2
	C747.6,159.8,749,158.3,749,156.6z"/>
<polygon class="st1" points="763.2,203.4 756.6,206.7 749.4,191.3 756,188 "/>
<rect x="57" y="355.9" transform="matrix(0.866 -0.5001 0.5001 0.866 -173.3574 78.3782)" class="st18" width="5" height="13.5"/>
<path class="st9" d="M47.5,320.8c1.4,0,2.6-1.2,2.6-2.6c0-1.4-1.2-2.6-2.6-2.6c-1.4,0-2.6,1.2-2.6,2.6
	C44.9,319.7,46.1,320.8,47.5,320.8z"/>
<path class="st9" d="M53,214.4c0-1.8-1.4-3.2-3.2-3.2c-1.8,0-3.2,1.4-3.2,3.2c0,1.8,1.4,3.2,3.2,3.2C51.5,217.6,53,216.1,53,214.4z"
	/>
<polygon class="st1" points="67.2,261.2 60.6,264.5 53.4,249.1 60,245.8 "/>
</svg>
